<svg width="272" height="205" viewBox="0 0 272 205" fill="none" xmlns="http://www.w3.org/2000/svg">
<path d="M88.2778 96.198C89.1195 80.4641 93.5926 65.1392 101.346 51.4257C109.1 37.7123 119.923 25.9833 132.967 17.1587C116.776 11.0019 99.1482 9.67795 82.2202 13.3473C65.2922 17.0167 49.7915 25.5219 37.5974 37.8316C22.0866 53.5206 12.7894 74.3078 11.431 96.3359L88.2778 96.198ZM145.156 22.8094C137.973 26.9172 131.372 31.9695 125.531 37.8316C110.025 53.545 100.75 74.3602 99.433 96.4048H190.74C189.446 74.3207 180.142 53.4687 164.574 37.7627C158.812 31.9355 152.278 26.9272 145.156 22.8782V22.8094ZM88.2778 107.706H0.000324286V101.986C-0.0677355 74.9415 10.5797 48.9724 29.6098 29.7692C44.404 14.8212 63.5141 4.89806 84.2447 1.3992C104.975 -2.09965 126.281 1.00236 145.156 10.2678C166.723 -0.239942 191.331 -2.69552 214.548 3.34338C237.764 9.38229 258.063 23.5187 271.788 43.2066L262.629 50.0975C254.318 38.2459 243.291 28.5581 230.472 21.8445C219.312 15.9552 207.034 12.4934 194.443 11.6858C181.852 10.8783 169.233 12.7433 157.412 17.1587C171.231 26.577 182.54 39.2318 190.355 54.022C198.171 68.8123 202.257 85.2899 202.257 102.021C202.257 118.752 198.171 135.229 190.355 150.02C182.54 164.81 171.231 177.465 157.412 186.883C175.946 193.93 196.293 194.621 215.26 188.846C234.228 183.072 250.744 171.16 262.216 154.978L271.374 161.869C262.068 174.834 249.851 185.431 235.705 192.809C221.792 200.012 206.388 203.857 190.725 204.036C175.062 204.216 159.574 200.725 145.5 193.843C131.38 200.759 115.831 204.251 100.111 204.036C84.392 203.82 68.9442 199.904 55.0188 192.603C40.5816 185.06 28.1794 174.138 18.8677 160.766L28.026 153.875C36.3376 165.727 47.364 175.415 60.1832 182.128C71.3823 187.961 83.6875 191.356 96.2908 192.093C108.894 192.829 121.511 190.889 133.312 186.401C120.259 177.569 109.43 165.829 101.676 152.103C93.9215 138.377 89.4533 123.038 88.6221 107.292L88.2778 107.706ZM191.085 107.292H99.6396C100.849 129.362 110.054 150.235 125.531 166.003C131.316 171.824 137.845 176.852 144.949 180.957C152.076 176.887 158.61 171.855 164.367 166.003C179.875 150.396 189.176 129.674 190.534 107.706" fill="#EE1C1F"/>
</svg>
